<svg width="34" height="34" viewBox="0 0 34 34" fill="none" xmlns="http://www.w3.org/2000/svg">
<path fill-rule="evenodd" clip-rule="evenodd" d="M16.7155 3.66974C24.0739 3.51273 30.1736 9.37061 30.3303 16.7156L30.3331 17.0886C30.2887 24.279 24.518 30.176 17.2844 30.3303C9.93943 30.4871 3.82669 24.6428 3.66968 17.2845C3.51295 9.93949 9.37054 3.82647 16.7155 3.66974ZM11.7242 19.7532C12.1323 20.1313 12.7589 20.1179 13.1369 19.7097L16.9721 15.6937L20.9751 19.5425C21.3702 19.9341 22.0101 19.9205 22.3884 19.5257C22.7798 19.1172 22.7664 18.4907 22.3583 18.1127L17.6334 13.5591C17.4428 13.3764 17.1872 13.2752 16.9206 13.2809C16.654 13.2866 16.403 13.3986 16.2204 13.5892L11.694 18.3402C11.4981 18.5311 11.4101 18.7864 11.4156 19.0396C11.4212 19.3062 11.52 19.5575 11.7242 19.7532Z" fill="#F5A67E"/>
</svg>
