<svg width="54" height="54" viewBox="0 0 54 54" fill="none" xmlns="http://www.w3.org/2000/svg">
<path fill-rule="evenodd" clip-rule="evenodd" d="M30.0583 6.41251C30.9903 6.41251 31.7458 7.16803 31.7458 8.10001V14.0743C31.7458 15.0063 30.9903 15.7618 30.0583 15.7618C29.1264 15.7618 28.3708 15.0063 28.3708 14.0743V8.10001C28.3708 7.16803 29.1264 6.41251 30.0583 6.41251Z" fill="#1543C3"/>
<path fill-rule="evenodd" clip-rule="evenodd" d="M30.0583 37.7863C30.9903 37.7863 31.7458 38.5418 31.7458 39.4738V44.4691C31.7458 45.4011 30.9903 46.1566 30.0583 46.1566C29.1264 46.1566 28.3708 45.4011 28.3708 44.4691V39.4738C28.3708 38.5418 29.1264 37.7863 30.0583 37.7863Z" fill="#1543C3"/>
<path fill-rule="evenodd" clip-rule="evenodd" d="M30.0583 19.1368C30.9903 19.1368 31.7458 19.8923 31.7458 20.8243V32.7238C31.7458 33.6558 30.9903 34.4113 30.0583 34.4113C29.1264 34.4113 28.3708 33.6558 28.3708 32.7238V20.8243C28.3708 19.8923 29.1264 19.1368 30.0583 19.1368Z" fill="#1543C3"/>
<path fill-rule="evenodd" clip-rule="evenodd" d="M14.3523 6.97606C17.5021 6.42606 21.6244 6.1875 27 6.1875C32.3756 6.1875 36.4979 6.42606 39.6477 6.97606C42.7848 7.52385 45.1337 8.40884 46.8015 9.83876C48.5217 11.3136 49.3234 13.1981 49.702 15.3083C50.0627 17.3185 50.0626 19.6886 50.0625 22.2646V22.3845C50.0625 23.3165 49.307 24.072 48.375 24.072C47.329 24.072 46.6636 24.4529 46.2397 24.9375C45.7869 25.4552 45.5219 26.1976 45.5219 26.9989C45.5219 27.8003 45.7869 28.5427 46.2397 29.0604C46.6636 29.545 47.329 29.9259 48.375 29.9259C49.307 29.9259 50.0625 30.6814 50.0625 31.6134V31.7333C50.0626 34.3098 50.0627 36.6802 49.702 38.6908C49.3234 40.8013 48.5217 42.6859 46.8016 44.1609C45.1337 45.591 42.7848 46.4761 39.6477 47.0239C36.4979 47.5739 32.3756 47.8125 27 47.8125C21.6244 47.8125 17.5021 47.5739 14.3523 47.0239C11.2152 46.4761 8.86628 45.591 7.19844 44.1609C5.47828 42.6859 4.6766 40.8013 4.298 38.6908C3.93734 36.6802 3.93742 34.3098 3.9375 31.7333L3.93751 31.6134C3.93751 30.6814 4.69302 29.9259 5.62501 29.9259C6.67104 29.9259 7.3364 29.545 7.76029 29.0604C8.2131 28.5427 8.47813 27.8003 8.47813 26.9989C8.47813 26.1976 8.2131 25.4552 7.76029 24.9375C7.3364 24.4529 6.67104 24.072 5.62501 24.072C4.69302 24.072 3.93751 23.3165 3.93751 22.3845L3.9375 22.2646C3.93742 19.6886 3.93734 17.3185 4.29801 15.3083C4.67662 13.1981 5.47834 11.3136 7.19851 9.83876C8.86635 8.40884 11.2152 7.52385 14.3523 6.97606ZM7.31512 20.9007C8.52957 21.2076 9.5405 21.8464 10.3007 22.7155C11.3614 23.9282 11.8531 25.4931 11.8531 26.9989C11.8531 28.5048 11.3614 30.0696 10.3007 31.2824C9.5405 32.1514 8.52957 32.7903 7.31512 33.0972C7.32537 35.112 7.37556 36.7324 7.61998 38.0949C7.90935 39.708 8.4436 40.7828 9.39532 41.5988C10.3994 42.4597 12.0583 43.1972 14.9329 43.6992C17.7948 44.199 21.6881 44.4375 27 44.4375C32.3119 44.4375 36.2052 44.199 39.0671 43.6992C41.9417 43.1972 43.6007 42.4597 44.6047 41.5988C45.5564 40.7828 46.0907 39.708 46.38 38.0949C46.6245 36.7324 46.6746 35.112 46.6849 33.0972C45.4704 32.7903 44.4595 32.1514 43.6994 31.2824C42.6386 30.0696 42.1469 28.5048 42.1469 26.9989C42.1469 25.4931 42.6386 23.9282 43.6994 22.7155C44.4595 21.8464 45.4704 21.2076 46.6849 20.9007C46.6746 18.8864 46.6244 17.2664 46.38 15.9043C46.0907 14.2915 45.5565 13.2169 44.6048 12.401C43.6007 11.5402 41.9418 10.8027 39.0672 10.3008C36.2052 9.80101 32.3119 9.5625 27 9.5625C21.6881 9.5625 17.7948 9.80101 14.9329 10.3008C12.0582 10.8027 10.3993 11.5402 9.39525 12.401C8.44354 13.2169 7.90933 14.2915 7.61997 15.9043C7.37557 17.2664 7.32537 18.8864 7.31512 20.9007Z" fill="#1543C3"/>
</svg>
