<svg width="36" height="36" viewBox="0 0 36 36" fill="none" xmlns="http://www.w3.org/2000/svg">
<g clip-path="url(#clip0_3_78)">
<path d="M26.2845 23.013C25.4565 23.013 24.7845 22.3425 24.7845 21.5145C24.7845 20.6865 25.455 20.0145 26.283 20.0145C27.111 20.0145 27.783 20.685 27.783 21.513C27.783 22.341 27.1125 23.0115 26.2845 23.013ZM9.71554 23.013C8.88754 23.013 8.21554 22.3425 8.21554 21.5145C8.21554 20.6865 8.88603 20.0145 9.71404 20.0145C10.542 20.0145 11.214 20.685 11.214 21.513C11.214 22.341 10.5435 23.0115 9.71554 23.013ZM26.8215 13.983L29.817 8.79451C29.9895 8.49601 29.8875 8.11501 29.589 7.94251C29.2905 7.77001 28.9095 7.87201 28.737 8.17051L25.704 13.425C23.385 12.366 20.7795 11.7765 18 11.7765C15.2205 11.7765 12.615 12.366 10.2945 13.4235L7.26154 8.17051C7.08904 7.87201 6.70803 7.77001 6.40953 7.94101C6.11253 8.11351 6.00903 8.49451 6.18153 8.79301L9.17704 13.983C4.03203 16.7805 0.514535 21.9885 -0.00146484 28.143H35.9985C35.484 21.9885 31.9665 16.7805 26.8215 13.983Z" fill="white"/>
</g>
<defs>
<clipPath id="clip0_3_78">
<rect width="36" height="36" fill="white"/>
</clipPath>
</defs>
</svg>
