<svg width="32" height="32" viewBox="0 0 32 32" fill="none" xmlns="http://www.w3.org/2000/svg">
<path fill-rule="evenodd" clip-rule="evenodd" d="M16 29.3333C8.64002 29.3333 2.66669 23.3467 2.66669 16L2.67181 15.627C2.86957 8.43923 8.76477 2.66667 16 2.66667C23.3467 2.66667 29.3334 8.64 29.3334 16C29.3334 23.3467 23.3467 29.3333 16 29.3333ZM21.3334 13.36C20.9334 12.9733 20.3067 12.9733 19.92 13.3733L16 17.3067L12.08 13.3733C11.6934 12.9733 11.0534 12.9733 10.6667 13.36C10.2667 13.76 10.2667 14.3867 10.6667 14.7733L15.2934 19.4267C15.48 19.6133 15.7334 19.72 16 19.72C16.2667 19.72 16.52 19.6133 16.7067 19.4267L21.3334 14.7733C21.5334 14.5867 21.6267 14.3333 21.6267 14.08C21.6267 13.8133 21.5334 13.56 21.3334 13.36Z" fill="#F5A67E"/>
</svg>
